<svg id="visual" viewBox="0 0 960 540" width="960" height="540" xmlns="http://www.w3.org/2000/svg" xmlns:xlink="http://www.w3.org/1999/xlink" version="1.1"><rect x="0" y="0" width="960" height="540" fill="#FFFFFF"></rect><defs><linearGradient id="grad1_0" x1="43.8%" y1="100%" x2="100%" y2="0%"><stop offset="14.444444444444446%" stop-color="#ffffff" stop-opacity="1"></stop><stop offset="85.55555555555554%" stop-color="#ffffff" stop-opacity="1"></stop></linearGradient></defs><defs><linearGradient id="grad2_0" x1="0%" y1="100%" x2="56.3%" y2="0%"><stop offset="14.444444444444446%" stop-color="#ffffff" stop-opacity="1"></stop><stop offset="85.55555555555554%" stop-color="#ffffff" stop-opacity="1"></stop></linearGradient></defs><g transform="translate(960, 540)"><path d="M-243 0C-234.7 -29.6 -226.5 -59.2 -216.2 -89.5C-205.9 -119.9 -193.6 -151 -171.8 -171.8C-150 -192.7 -118.6 -203.3 -88.4 -213.4C-58.2 -223.6 -29.1 -233.3 0 -243L0 0Z" fill="#e50914"></path></g><g transform="translate(0, 0)"><path d="M243 0C232.4 31 221.8 61.9 205.1 85C188.4 108 165.7 123 147.8 147.8C129.9 172.5 116.8 207 93 224.5C69.2 242 34.6 242.5 0 243L0 0Z" fill="#e50914"></path></g></svg>